<?xml version="1.0" encoding="iso-8859-1"?>
<!-- Generator: Adobe Illustrator 17.1.0, SVG Export Plug-In . SVG Version: 6.00 Build 0)  -->
<!DOCTYPE svg PUBLIC "-//W3C//DTD SVG 1.1//EN" "http://www.w3.org/Graphics/SVG/1.1/DTD/svg11.dtd">
<svg version="1.1" id="Capa_1" xmlns="http://www.w3.org/2000/svg" xmlns:xlink="http://www.w3.org/1999/xlink" x="0px" y="0px"
	 viewBox="0 0 202.666 202.666" style="enable-background:new 0 0 202.666 202.666;" xml:space="preserve">
<path d="M128.26,200.145c-0.005,0-0.01,0-0.015,0H74.422c-0.075-0.005-0.157-0.003-0.236-0.012c-0.306-0.034-0.6-0.139-0.859-0.305
	c-0.076-0.049-0.148-0.103-0.216-0.16l-49.646-41.14c-0.423-0.351-0.683-0.859-0.72-1.407l-5.101-76.38l-3.877-2.937
	c-0.386-0.292-0.653-0.715-0.751-1.189L0.041,13.834c-0.129-0.625,0.048-1.275,0.477-1.749c0.429-0.473,1.058-0.71,1.693-0.645
	l37.344,3.981c2.688-1.378,14.499-7.064,31.318-9.826c18.649-3.062,29.988-3.082,30.463-3.074
	c0.443,0.006,11.814,0.013,30.456,3.074c16.819,2.762,28.629,8.448,31.317,9.826l37.345-3.981c0.636-0.066,1.264,0.172,1.693,0.645
	s0.606,1.123,0.477,1.749L189.65,76.615c-0.098,0.474-0.365,0.897-0.751,1.189l-3.877,2.937l-5.101,76.38
	c-0.037,0.548-0.297,1.056-0.719,1.407l-49.647,41.14c-0.065,0.056-0.134,0.107-0.207,0.154c-0.266,0.172-0.568,0.279-0.883,0.312
	C128.396,200.141,128.328,200.145,128.26,200.145z M77.3,196.145h48.067l-9.233-24.461H86.533L77.3,196.145z M101.333,167.684
	h16.184c0.832,0,1.577,0.515,1.871,1.294l9.753,25.839l12.116-10.04v-66.333l-22.438-10.215v43.597c0,1.104-0.896,2-2,2H85.847
	c-1.104,0-2-0.896-2-2v-43.597L61.41,118.444v66.333l12.116,10.04l9.753-25.839c0.294-0.779,1.039-1.294,1.871-1.294H101.333z
	 M26.679,155.997l30.731,25.465V118.22l-14.606-9.869c-0.55-0.372-0.88-0.993-0.88-1.657v-8.899L21.853,83.733L26.679,155.997z
	 M145.257,118.22v63.243l30.73-25.465l4.827-72.264l-20.071,14.061v8.899c0,0.665-0.33,1.285-0.88,1.657L145.257,118.22z
	 M101.333,149.826h13.486v-44.179c0-0.089,0.006-0.178,0.018-0.266l5.516-41.177l-17.896,11.568
	c-0.091,0.062-0.187,0.116-0.286,0.161c-0.268,0.124-0.553,0.184-0.835,0.184c-0.001,0-0.003,0-0.004,0
	c-0.28,0-0.563-0.059-0.829-0.181c-0.102-0.046-0.2-0.101-0.293-0.165L82.314,64.205l5.515,41.177
	c0.012,0.088,0.018,0.177,0.018,0.266v44.179H101.333z M45.923,105.631l13.678,9.241l19.18-8.732l-32.857-6.922V105.631z
	 M123.886,106.14l19.18,8.732l13.677-9.241v-6.413L123.886,106.14z M124.77,61.348l-5.585,41.694l38.745-8.162l23.98-16.8
	l3.975-3.011l12.268-59.361l-33.767,3.6l-3.684,18.097c-0.107,0.527-0.422,0.989-0.874,1.281L124.77,61.348z M44.736,94.881
	l38.745,8.162l-5.584-41.694L42.837,38.686c-0.452-0.292-0.767-0.754-0.874-1.281l-3.684-18.097l-33.766-3.6L16.781,75.07
	l3.976,3.012L44.736,94.881z M80.87,58.508l20.463,13.228l20.488-13.244c0.003-0.002,0.007-0.004,0.01-0.007l35.12-22.702
	l3.503-17.21c-3.64-1.763-14.586-6.612-29.31-9.03c-18.325-3.009-29.749-3.071-29.808-3.021h-0.001
	c-0.188,0-11.584,0.028-29.813,3.021c-14.758,2.423-25.679,7.267-29.311,9.028l3.504,17.212L80.812,58.47
	C80.831,58.483,80.851,58.495,80.87,58.508z M67.059,87.142c-0.377,0-0.759-0.106-1.098-0.329L28.014,61.84
	c-0.922-0.607-1.178-1.848-0.571-2.771c0.607-0.923,1.848-1.178,2.771-0.571L68.16,83.471c0.922,0.607,1.178,1.848,0.571,2.771
	C68.347,86.826,67.709,87.142,67.059,87.142z M135.607,87.142c-0.65,0-1.289-0.316-1.673-0.9c-0.607-0.923-0.351-2.163,0.571-2.771
	l37.948-24.973c0.922-0.607,2.162-0.353,2.771,0.571c0.607,0.923,0.351,2.163-0.571,2.771l-37.948,24.973
	C136.366,87.036,135.985,87.142,135.607,87.142z M139.283,69.7c-0.65,0-1.288-0.316-1.673-0.9c-0.607-0.923-0.351-2.163,0.571-2.771
	l37.947-24.973c0.922-0.607,2.162-0.353,2.771,0.571c0.607,0.923,0.351,2.163-0.571,2.771L140.38,69.371
	C140.041,69.594,139.66,69.7,139.283,69.7z M63.384,69.7c-0.377,0-0.759-0.106-1.098-0.329L24.338,44.398
	c-0.922-0.607-1.178-1.848-0.571-2.771s1.847-1.178,2.771-0.571l37.948,24.973c0.922,0.607,1.178,1.848,0.571,2.771
	C64.672,69.384,64.034,69.7,63.384,69.7z M101.333,48.135c-0.399,0-0.799-0.12-1.143-0.358L78.357,32.58
	c-0.717-0.5-1.027-1.406-0.766-2.24s1.034-1.401,1.908-1.401h43.667c0.874,0,1.646,0.567,1.908,1.401s-0.048,1.741-0.766,2.24
	l-21.834,15.196C102.132,48.015,101.732,48.135,101.333,48.135z M85.874,32.938l15.459,10.76l15.459-10.76H85.874z"/>
<g>
</g>
<g>
</g>
<g>
</g>
<g>
</g>
<g>
</g>
<g>
</g>
<g>
</g>
<g>
</g>
<g>
</g>
<g>
</g>
<g>
</g>
<g>
</g>
<g>
</g>
<g>
</g>
<g>
</g>
</svg>
